<?xml version="1.0" standalone="no"?>
<!DOCTYPE svg PUBLIC "-//W3C//DTD SVG 20010904//EN"
 "http://www.w3.org/TR/2001/REC-SVG-20010904/DTD/svg10.dtd">
<svg version="1.0" xmlns="http://www.w3.org/2000/svg"
 width="300.000000pt" height="189.000000pt" viewBox="0 0 300.000000 189.000000"
 preserveAspectRatio="xMidYMid meet">

<metadata>
Created by potrace 1.10, written by Peter Selinger 2001-2011
</metadata>

<g transform="translate(0.000000,189.000000) scale(0.100000,-0.100000)"
fill="#000000" stroke="none">
<path d="M225 1130 l125 -250 0 -145 0 -145 55 0 55 0 0 143 1 142 127 253
128 252 -56 0 -55 0 -95 -185 c-52 -101 -97 -184 -100 -184 -3 0 -45 83 -95
185 l-89 184 -63 0 -63 0 125 -250z m72 41 c92 -184 104 -201 127 -182 9 7 55
89 103 182 74 145 90 169 110 169 13 0 23 -3 23 -6 0 -3 -52 -108 -115 -232
l-115 -227 0 -122 0 -123 -25 0 -25 0 0 125 0 126 -110 220 c-60 121 -110 225
-110 230 0 6 12 9 27 7 24 -3 36 -22 110 -167z"/>
<path d="M810 985 l0 -395 55 0 55 0 0 175 0 175 180 0 c99 0 183 0 186 0 3 0
5 -79 4 -175 l-1 -175 61 0 60 0 0 395 0 395 -60 0 -60 0 0 -170 0 -170 -185
0 -185 0 0 170 0 170 -55 0 -55 0 0 -395z m99 41 c20 -24 371 -24 395 0 12 12
16 38 16 112 0 147 9 202 31 202 18 0 19 -16 19 -355 0 -339 -1 -355 -19 -355
-15 0 -19 11 -24 68 -4 37 -7 108 -7 159 0 126 4 123 -213 123 -165 0 -168 0
-192 -25 -24 -23 -25 -28 -25 -175 l0 -150 -25 0 -25 0 0 354 0 355 23 3 c22
3 22 2 27 -148 4 -107 9 -156 19 -168z"/>
<path d="M1600 985 l0 -395 210 0 210 0 0 53 0 52 -155 -3 -155 -3 0 346 0
345 -55 0 -55 0 0 -395z m81 58 c1 -164 0 -306 -1 -316 -1 -10 6 -29 14 -43
16 -24 19 -24 156 -24 118 0 140 -2 140 -15 0 -13 -27 -15 -180 -15 l-180 0 0
355 0 355 25 0 25 0 1 -297z"/>
<path d="M2427 1230 l-49 -139 -151 -3 -152 -3 118 -99 c64 -54 117 -101 117
-105 0 -4 -20 -67 -45 -141 -25 -74 -45 -137 -45 -141 0 -4 7 -10 16 -13 10
-4 60 24 140 79 l124 86 118 -80 c108 -73 173 -107 159 -84 -8 12 -89 263 -91
280 0 7 52 55 117 107 143 114 142 116 -56 116 l-134 0 -43 128 c-40 119 -58
152 -84 152 -6 0 -33 -63 -59 -140z m83 69 c0 -11 -4 -17 -10 -14 -5 3 -10 15
-10 26 0 11 5 17 10 14 6 -3 10 -15 10 -26z m13 -144 l34 -110 126 0 c69 0
123 -3 119 -6 -4 -3 -50 -36 -103 -73 l-96 -67 33 -94 c19 -53 38 -104 44
-115 15 -28 6 -25 -53 18 -29 21 -73 52 -98 70 l-46 31 -97 -70 c-53 -38 -99
-69 -101 -69 -3 0 -1 9 5 20 6 11 25 62 43 114 l33 94 -95 68 c-53 37 -99 70
-103 73 -4 3 50 6 119 6 l127 0 35 119 c19 65 36 115 38 110 1 -5 18 -58 36
-119z m61 -74 c-7 -7 -12 3 -18 34 l-6 30 14 -30 c8 -16 12 -32 10 -34z m81
-216 c0 -19 -1 -35 -3 -35 -7 0 -21 53 -16 61 11 19 19 8 19 -26z m55 -207 c0
-16 -3 -19 -11 -11 -6 6 -8 16 -5 22 11 17 16 13 16 -11z m-441 -24 c-14 -18
-24 -11 -15 11 3 9 11 13 16 10 8 -5 7 -11 -1 -21z"/>
</g>
</svg>

